<?xml version="1.0" encoding="UTF-8"?>
<svg width="256px" height="256px" viewBox="0 0 256 256" version="1.1" xmlns="http://www.w3.org/2000/svg" xmlns:xlink="http://www.w3.org/1999/xlink">
    <!-- Generator: Sketch 57.1 (83088) - https://sketch.com -->
    <title>icon</title>
    <desc>Created with Sketch.</desc>
    <defs>
        <rect id="path-1" x="0" y="0" width="256" height="256" rx="70"></rect>
        <linearGradient x1="17.5421507%" y1="118.208568%" x2="82.4578493%" y2="-18.208568%" id="linearGradient-3">
            <stop stop-color="#A768DE" offset="0%"></stop>
            <stop stop-color="#DE6878" offset="100%"></stop>
        </linearGradient>
        <linearGradient x1="93.1676718%" y1="34.1999674%" x2="5.69910565%" y2="66.4830611%" id="linearGradient-4">
            <stop stop-color="#3023AE" offset="0%"></stop>
            <stop stop-color="#53A0FD" offset="47.5247532%"></stop>
            <stop stop-color="#B4EC51" offset="100%"></stop>
        </linearGradient>
    </defs>
    <g id="Page-1" stroke="none" stroke-width="1" fill="none" fill-rule="evenodd">
        <g id="icon">
            <g id="Mask" fill="#FFFFFF" fill-opacity="0" fill-rule="nonzero">
                <rect id="path-1" x="0" y="0" width="256" height="256"></rect>
            </g>
            <g id="Clipped">
                <mask id="mask-2" fill="white">
                    <use xlink:href="#path-1"></use>
                </mask>
                <g id="path-1"></g>
                <g id="Group-2" mask="url(#mask-2)">
                    <g transform="translate(-50.000000, -130.000000)">
                        <path d="M96.345322,272.104373 C17.2271732,296.661628 -12.1897814,271.231529 6.37469287,185.120979 C24.9391672,99.0104296 49.5090468,-0.72354759 125.671215,0.00395666648 C201.833384,0.731460923 223.398691,34.1590003 257.006369,108.853992 C290.614048,183.548983 175.463471,247.547119 96.345322,272.104373 Z" id="Path-Copy" fill="url(#linearGradient-3)" opacity="0.100000001"></path>
                        <path d="M184.345322,523.104373 C105.227173,547.661628 75.8102186,522.231529 94.3746929,436.120979 C112.939167,350.01043 137.509047,250.276452 213.671215,251.003957 C289.833384,251.731461 311.398691,285.159 345.006369,359.853992 C378.614048,434.548983 263.463471,498.547119 184.345322,523.104373 Z" id="Path-Copy-2" fill="url(#linearGradient-3)" opacity="0.100000001"></path>
                        <path d="M479.477725,388.059467 C630.608181,302.302256 643.35349,235.733212 506.885313,175.221455 C370.417136,114.709698 207.694646,48.9060435 92.8429348,155.913121 C-22.0087765,262.920199 -12.7659621,326.558898 30.0501173,448.415737 C72.8661966,570.272575 328.347268,473.816679 479.477725,388.059467 Z" id="Path-Copy" fill="url(#linearGradient-4)" opacity="0.149999991"></path>
                    </g>
                </g>
                <g id="Group" mask="url(#mask-2)" fill-rule="nonzero">
                    <g transform="translate(45.000000, 47.000000)">
                        <path d="M9.73535445,65.3431532 C4.42443422,93.6991313 9.44604365,120.423111 31.7436426,140.823095 C48.998967,156.714682 72.5158043,162.691878 95.7020008,161.937078 C115.230481,161.223079 135.275589,154.735883 148.563222,140.537495 C156.695092,131.459533 162.223996,120.402715 164.578643,108.509519 C166.721177,98.4963552 167.313418,88.2203845 166.335173,78.0319434 C165.198595,65.7919529 160.135655,56.2651602 152.592909,46.7791676 C145.821104,38.2533786 137.706706,30.8560653 128.559445,24.8695846 C115.395803,16.1791913 99.8350123,8.93719691 84.1295673,6.08119916 C80.1882003,5.37370126 76.1911436,5.01189047 72.1851634,5 C38.3357964,5.02039998 15.9348722,32.2135789 9.73535445,65.3431532 Z" id="Path" fill="#FFD51D"></path>
                        <path d="M161.064142,56.0589407 C157.895437,46.1225119 153.251771,36.7220601 147.289664,28.1744337 C140.197448,17.8925359 130.891475,12.0729817 119.802201,7.4666914 C109.723287,3.37628326 99.0478221,0.959269899 88.1946927,0.310490491 C72.534423,-0.717699296 55.4393118,0.70120261 40.5989514,6.17117227 C2.10420443,20.4630103 -6.36136026,60.3156464 6.2037515,96.4873628 C15.8376871,124.289615 33.5887259,145.388069 62.9619806,152.174122 C85.8989465,157.438454 109.040889,150.858039 128.554733,138.355251 C144.952922,127.826588 158.993871,111.889646 163.400884,92.580242 C165.845005,80.4304624 165.060333,67.8494359 161.125635,56.1000683" id="Path" fill="#74D9D7"></path>
                        <path d="M136.786915,27.0117159 C128.701515,18.7185915 118.544224,12.7451843 107.371316,9.71267793 C97.9865374,7.02075782 88.2460497,5.77956226 78.4868316,6.0320315 C66.7818745,6.29785597 57.3647973,10.5305993 47.8455826,16.9717305 C39.263723,22.8233666 31.6769368,30.0173473 25.3753332,38.2785835 C16.3259511,50.1997882 8.31837136,64.4316209 4.74355893,79.0724144 C-4.73480077,117.064864 21.5962459,144.628816 56.2412848,153.625952 C82.797034,160.537388 108.617393,157.572423 129.494297,137.778724 C145.836297,122.360905 153.026777,100.563299 153.741739,78.4794213 C154.354564,59.9330531 149.49282,40.4869713 136.848198,26.9503718" id="Path" fill="#F459A5"></path>
                        <path d="M163.929897,76.8482632 C161.871387,66.2350692 156.910379,56.3989492 151.82586,46.9513661 C144.559321,33.270775 136.736984,19.2220963 124.962309,8.89519268 C112.775931,-1.75889987 95.8138106,-1.47260948 80.971956,2.65815195 C67.5504729,6.40037641 50.7118635,11.0832693 40.1722939,20.2854606 C30.2502771,28.9559697 24.692301,43.0250978 21.9750682,55.6627738 C16.8082089,79.7520657 10.3033182,116.847121 31.2589469,135.312852 C43.3218137,145.926046 60.0780826,150.404446 75.7845117,150.956577 C92.4172698,151.549607 113.516994,146.048742 130.993742,135.66049 C152.649264,122.777422 168.767395,102.409906 163.929897,76.8278138" id="Path" fill="#5F6CFF"></path>
                        <path d="M157.01927,59.0740691 C154.046541,48.866949 148.39878,39.6351695 140.658065,32.3301909 C134.210331,26.0896839 126.844624,20.8683505 118.815857,16.846893 C109.2241,12.0121873 99.7755043,11.3594001 89.3043334,12.4609785 C79.8673155,13.5131239 70.6619895,16.0755324 62.0424753,20.0496305 C49.0903061,25.6706557 37.4105165,33.8444935 27.7043966,44.0803617 C3.73523133,70.7426415 13.2042787,104.463183 37.3984105,126.71915 C56.0092811,143.834415 78.1173592,152.565445 103.51813,145.588781 C123.335639,140.203286 138.531108,125.63797 148.613701,108.094313 C157.060173,93.3454005 161.477698,75.4549495 157.039721,59.1352679" id="Path" fill="#000000"></path>
                        <path d="M79.8413952,83.5084742 C79.7915033,83.5084742 79.7510579,83.5502196 79.7510579,83.6017147 L79.7510579,101 C79.7510579,105.418278 76.2808416,109 72.0001128,109 L66.5437365,109 C62.2630078,109 58.7927915,105.418278 58.7927915,101 L58.7927915,53 C58.7927915,48.581722 62.2630078,45 66.5437365,45 L71.9097754,45 C76.1905042,45 79.6607205,48.581722 79.6607205,53 L79.6607205,68.4999802 C79.6607205,68.5514754 79.7011659,68.5932203 79.7510579,68.5932203 C79.8079118,68.5932203 79.8614325,68.565532 79.8954552,68.5185182 L94.5902704,48.2126211 C96.053438,46.1907557 98.355137,45 100.800179,45 L109.562385,45 C112.800307,45 115.425162,47.709197 115.425162,51.051161 C115.425162,52.483197 114.9331,53.8688258 114.036472,54.9616618 L102.171873,69.422577 C99.8360763,72.2695139 99.7168193,76.4048557 101.884423,79.3901444 L115.474324,98.1065583 C117.659524,101.11608 117.067231,105.384155 114.151401,107.639569 C113.009721,108.522667 111.621454,109 110.194746,109 L101.069979,109 C98.524684,109 96.1416021,107.710191 94.694217,105.549211 L79.983103,83.5851719 C79.9509335,83.537142 79.8979671,83.5084742 79.8413952,83.5084742 Z" id="K" fill="#FFFFFF"></path>
                    </g>
                </g>
            </g>
        </g>
    </g>
</svg>